<?xml version="1.0" encoding="UTF-8" standalone="no"?>
<svg width="440px" height="192px" viewBox="0 0 440 192" version="1.1" xmlns="http://www.w3.org/2000/svg" xmlns:xlink="http://www.w3.org/1999/xlink" xmlns:sketch="http://www.bohemiancoding.com/sketch/ns">
    <!-- Generator: Sketch 3.4.4 (17249) - http://www.bohemiancoding.com/sketch -->
    <title>Group</title>
    <desc>Created with Sketch.</desc>
    <defs></defs>
    <g id="Page-1" stroke="none" stroke-width="1" fill="none" fill-rule="evenodd" sketch:type="MSPage">
        <g id="locatie" sketch:type="MSLayerGroup" transform="translate(-517.000000, -504.000000)">
            <g id="Objects" transform="translate(81.000000, 277.000000)">
                <g id="Group" transform="translate(436.000000, 227.000000)">
                    <path d="M13.397,150.615 C13.447,148.062 281.136,98.865 281.136,98.865 L291.218,191.842 L12.964,191.472 L13.397,150.615" id="Shape" fill="#292929" sketch:type="MSShapeGroup"></path>
                    <path d="M0.209,163.998 L269.032,105.728 L275.887,179.664 L345.908,181.136 L373.821,53.334 L0.209,163.998 Z" id="Shape" fill="#685C5B" sketch:type="MSShapeGroup"></path>
                    <path d="M1.01,146.318 L393.227,9.7 C393.227,9.7 431.727,-5.942 437.067,3.114 C441.224,10.164 441.947,10.164 410.364,61.116 C371.07,124.509 346.71,176.186 346.71,176.186 L359.439,59.644 L0.029,163.456 L1.01,146.318 L1.01,146.318 Z" id="Shape" fill="#A6A6A6" sketch:type="MSShapeGroup"></path>
                    <g transform="translate(238.000000, 118.000000)" id="Shape" fill="#808080" sketch:type="MSShapeGroup">
                        <path d="M12.589,0.712 C6.116,0.712 0.856,5.973 0.856,12.453 C0.856,18.921 6.117,24.183 12.589,24.183 C19.065,24.183 24.325,18.92 24.325,12.453 C24.325,5.973 19.064,0.712 12.589,0.712 L12.589,0.712 L12.589,0.712 Z M17.989,21.031 L17.44,20.072 C17.369,19.966 17.258,19.899 17.128,19.899 C17.065,19.899 17.003,19.912 16.95,19.943 C16.862,19.999 16.806,20.072 16.78,20.161 C16.759,20.26 16.762,20.357 16.824,20.444 L17.368,21.389 C16.133,22.05 14.741,22.465 13.268,22.564 L13.268,21.224 C13.268,20.856 12.959,20.551 12.587,20.551 C12.219,20.551 11.907,20.856 11.907,21.224 L11.907,22.564 C10.461,22.477 9.088,22.062 7.864,21.421 L8.413,20.453 C8.452,20.376 8.468,20.28 8.439,20.192 C8.418,20.105 8.352,20.018 8.272,19.975 C8.224,19.942 8.157,19.92 8.104,19.92 C7.966,19.92 7.846,19.997 7.789,20.105 L7.241,21.063 C6.015,20.3 4.973,19.29 4.175,18.092 L5.331,17.42 C5.651,17.235 5.761,16.82 5.576,16.495 C5.391,16.181 4.973,16.06 4.652,16.255 L3.493,16.918 C2.878,15.68 2.516,14.3 2.46,12.842 L3.56,12.833 C3.653,12.833 3.748,12.786 3.816,12.733 C3.88,12.658 3.919,12.571 3.919,12.472 C3.919,12.277 3.749,12.113 3.556,12.113 L2.461,12.125 C2.501,10.637 2.87,9.234 3.494,7.981 L4.653,8.644 C4.761,8.711 4.876,8.742 4.989,8.742 C5.223,8.742 5.454,8.614 5.577,8.396 C5.762,8.079 5.652,7.667 5.332,7.483 L4.176,6.807 C4.957,5.634 5.987,4.634 7.191,3.873 L7.741,4.831 C7.774,4.884 7.818,4.927 7.872,4.948 C7.981,5.015 8.116,5.015 8.229,4.948 C8.317,4.905 8.37,4.831 8.399,4.73 C8.42,4.643 8.415,4.545 8.354,4.468 L7.811,3.512 C9.046,2.849 10.437,2.426 11.909,2.326 L11.909,3.675 C11.909,4.057 12.221,4.348 12.589,4.348 C12.961,4.348 13.27,4.057 13.27,3.675 L13.27,2.326 C14.715,2.426 16.091,2.827 17.314,3.481 L16.764,4.435 C16.666,4.609 16.734,4.83 16.907,4.925 C16.955,4.957 17.022,4.969 17.075,4.969 C17.21,4.969 17.33,4.904 17.391,4.796 L17.939,3.837 C19.161,4.599 20.206,5.609 21.005,6.805 L19.848,7.481 C19.526,7.666 19.419,8.077 19.603,8.394 C19.726,8.612 19.957,8.74 20.189,8.74 C20.303,8.74 20.418,8.71 20.528,8.642 L21.689,7.979 C22.298,9.219 22.664,10.6 22.717,12.058 L21.618,12.058 C21.526,12.058 21.428,12.101 21.363,12.165 C21.299,12.23 21.259,12.328 21.259,12.415 C21.259,12.546 21.33,12.666 21.441,12.73 C21.502,12.762 21.554,12.773 21.619,12.773 L21.625,12.773 L22.718,12.773 C22.68,14.252 22.312,15.655 21.69,16.915 L20.529,16.252 C20.207,16.058 19.789,16.178 19.604,16.492 C19.42,16.817 19.527,17.232 19.849,17.417 L21.006,18.089 C20.223,19.271 19.19,20.27 17.989,21.031 L17.989,21.031 L17.989,21.031 Z"></path>
                        <path d="M17.581,8.791 L13.249,11.191 C13.052,11.094 12.829,11.027 12.589,11.027 C12.352,11.027 12.128,11.094 11.932,11.191 L7.594,8.791 C7.187,8.551 6.666,8.714 6.436,9.116 C6.208,9.528 6.366,10.039 6.774,10.268 L11.194,12.724 C11.318,13.377 11.894,13.875 12.59,13.875 C13.287,13.875 13.861,13.377 13.988,12.724 L18.408,10.268 C18.813,10.039 18.973,9.528 18.74,9.116 C18.51,8.714 17.992,8.551 17.581,8.791 L17.581,8.791 L17.581,8.791 Z"></path>
                    </g>
                    <text id="centraal-station" fill="#FFFFFF" sketch:type="MSTextLayer" font-family="Helvetica" font-size="15.59" font-weight="normal">
                        <tspan x="79.957" y="158.3701" fill="#000000">centraal station</tspan>
                    </text>
                </g>
            </g>
        </g>
    </g>
</svg>