<?xml version="1.0" encoding="UTF-8" standalone="no"?>
<svg width="452px" height="36px" viewBox="0 0 452 36" version="1.1" xmlns="http://www.w3.org/2000/svg" xmlns:xlink="http://www.w3.org/1999/xlink" xmlns:sketch="http://www.bohemiancoding.com/sketch/ns">
    <!-- Generator: Sketch 3.4.4 (17249) - http://www.bohemiancoding.com/sketch -->
    <title>Group</title>
    <desc>Created with Sketch.</desc>
    <defs></defs>
    <g id="Page-1" stroke="none" stroke-width="1" fill="none" fill-rule="evenodd" sketch:type="MSPage">
        <g id="locatie" sketch:type="MSLayerGroup" transform="translate(-218.000000, -649.000000)">
            <g id="Objects" transform="translate(81.000000, 277.000000)" sketch:type="MSShapeGroup">
                <g id="Group" transform="translate(137.000000, 372.000000)">
                    <path d="M451.844,21.914 C450.09,15.005 440.875,4.851 431.682,1.825 C429.965,1.26 428.249,0.943 426.582,0.943 L299.773,0.943 C299.584,0.943 299.43,1.096 299.43,1.287 L299.43,3.118 L299.429,3.118 L299.429,24.121 L299.43,24.121 L299.43,27.344 L297.04,27.344 L297.04,26.775 L295.332,26.775 L295.332,27.344 L293.038,27.344 L293.038,20.874 L293.038,20.874 L293.038,20.32 L293.038,20.32 L293.038,4.515 L293.038,4.515 L293.038,3.961 L293.038,3.961 L293.038,1.448 C293.038,1.149 292.795,0.907 292.497,0.907 L150.437,0.907 C150.137,0.907 149.894,1.149 149.894,1.448 L149.894,3.117 L149.894,3.961 L149.894,4.515 L149.894,20.32 L149.894,20.874 L149.894,24.121 L149.894,27.344 L147.554,27.344 L147.554,26.775 L145.845,26.775 L145.845,27.344 L143.501,27.344 L143.501,24.121 L143.501,20.874 L143.501,20.32 L143.501,4.515 L143.501,3.961 L143.501,3.117 L143.501,1.448 C143.501,1.149 143.26,0.907 142.962,0.907 L0.899,0.907 C0.6,0.907 0.358,1.149 0.358,1.448 L0.358,3.117 L0.358,3.961 L0.358,4.515 L0.358,20.32 L0.358,20.874 L0.358,24.121 L0.358,28.077 C0.358,28.376 0.6,28.618 0.899,28.618 L18.073,28.618 C17.559,29.302 17.251,30.147 17.251,31.067 C17.251,33.322 19.079,35.15 21.333,35.15 C23.536,35.15 25.325,33.407 25.408,31.225 L36.769,31.225 C36.852,33.407 38.641,35.15 40.844,35.15 C43.098,35.15 44.925,33.322 44.925,31.067 C44.925,30.147 44.617,29.301 44.104,28.618 L99.755,28.618 C99.24,29.302 98.934,30.147 98.934,31.067 C98.934,33.322 100.761,35.15 103.016,35.15 C105.217,35.15 107.006,33.407 107.09,31.225 L118.451,31.225 C118.534,33.407 120.324,35.15 122.525,35.15 C124.779,35.15 126.607,33.322 126.607,31.067 C126.607,30.147 126.298,29.301 125.785,28.618 L142.961,28.618 C143.259,28.618 143.5,28.376 143.5,28.077 L143.5,28.03 L145.844,28.03 L145.844,28.599 L147.553,28.599 L147.553,28.03 L149.893,28.03 L149.893,28.077 C149.893,28.376 150.136,28.618 150.436,28.618 L167.61,28.618 C167.095,29.302 166.788,30.147 166.788,31.067 C166.788,33.322 168.615,35.15 170.87,35.15 C173.072,35.15 174.861,33.407 174.945,31.225 L186.305,31.225 C186.389,33.407 188.178,35.15 190.381,35.15 C192.635,35.15 194.461,33.322 194.461,31.067 C194.461,30.147 194.154,29.301 193.641,28.618 L249.29,28.618 C248.777,29.302 248.47,30.147 248.47,31.067 C248.47,33.322 250.296,35.15 252.552,35.15 C254.753,35.15 256.543,33.407 256.626,31.225 L267.987,31.225 C268.07,33.407 269.859,35.15 272.061,35.15 C274.315,35.15 276.143,33.322 276.143,31.067 C276.143,30.147 275.836,29.301 275.321,28.618 L292.497,28.618 C292.795,28.618 293.038,28.376 293.038,28.077 L293.038,28.03 L295.332,28.03 L295.332,28.599 L297.04,28.599 L297.04,28.03 L299.43,28.03 L299.43,28.275 C299.43,28.464 299.583,28.618 299.773,28.618 L313.765,28.618 C313.253,29.302 312.945,30.147 312.945,31.067 C312.945,33.322 314.771,35.15 317.028,35.15 C319.228,35.15 321.017,33.407 321.101,31.225 L332.462,31.225 C332.546,33.407 334.335,35.15 336.537,35.15 C338.791,35.15 340.619,33.322 340.619,31.067 C340.619,30.147 340.31,29.301 339.797,28.618 L341.085,28.618 L341.085,31.713 L350.139,31.713 L350.139,32.744 L351.4,32.744 L351.4,31.655 L353.06,31.655 L353.06,33.374 L362.687,33.374 L362.687,31.77 L368.317,31.77 L368.317,32.859 L393.57,32.859 L393.57,28.619 L395.449,28.619 C394.935,29.303 394.627,30.148 394.627,31.068 C394.627,33.323 396.455,35.151 398.709,35.151 C400.912,35.151 402.701,33.408 402.785,31.226 L414.145,31.226 C414.229,33.408 416.018,35.151 418.22,35.151 C420.474,35.151 422.302,33.323 422.302,31.068 C422.302,30.148 421.993,29.302 421.48,28.619 L424.632,28.619 C424.368,29.035 424.21,29.523 424.21,30.052 C424.21,31.539 425.417,32.745 426.903,32.745 L444.264,32.745 C445.752,32.745 446.957,31.539 446.957,30.052 C446.957,29.524 446.799,29.035 446.537,28.619 L447.599,28.619 C448.758,28.618 452.867,25.953 451.844,21.914 L451.844,21.914 Z M35.601,28.602 L35.59,28.619 L35.41,28.906 L34.8,29.88 L27.378,29.88 L26.587,28.619 L35.601,28.602 L35.601,28.602 Z M116.481,29.879 L109.06,29.879 L108.45,28.905 L108.27,28.618 L108.26,28.601 L117.272,28.618 L116.481,29.879 L116.481,29.879 Z M185.137,28.602 L185.127,28.619 L184.946,28.906 L184.336,29.88 L176.914,29.88 L176.124,28.619 L185.137,28.602 L185.137,28.602 Z M266.019,29.879 L258.597,29.879 L257.987,28.905 L257.807,28.618 L257.796,28.601 L266.809,28.618 L266.019,29.879 L266.019,29.879 Z M330.494,29.879 L323.071,29.879 L322.281,28.618 L331.283,28.618 L330.494,29.879 L330.494,29.879 Z M446.186,13.448 L441.674,13.448 C440.899,13.448 434.712,10.785 434.281,10.785 L430.242,10.785 C429.971,10.785 429.983,10.622 429.983,10.412 L429.983,4.516 L429.983,3.962 L430.144,3.962 C430.233,3.932 430.367,3.909 430.572,3.904 C431.073,3.892 435.279,4.829 438.543,6.734 C442.762,9.197 446.586,13.448 446.186,13.448 L446.186,13.448 Z" id="Shape" fill="#FFD629"></path>
                    <path d="M418.411,13.109 C418.411,17.946 414.599,21.867 409.894,21.867 L154.158,21.867 C149.456,21.867 145.642,17.946 145.642,13.109 L145.642,13.109 C145.642,8.273 149.455,4.352 154.158,4.352 L409.894,4.352 C414.599,4.353 418.411,8.273 418.411,13.109 L418.411,13.109 L418.411,13.109 Z" id="Shape" fill="#205490"></path>
                    <g transform="translate(7.000000, 5.000000)" id="Shape" fill="#000000">
                        <path d="M23.847,7.072 C23.847,10.636 22.798,13.527 21.503,13.527 L3.232,13.527 C1.938,13.527 0.888,10.636 0.888,7.072 L0.888,7.072 C0.888,3.507 1.938,0.615 3.232,0.615 L21.503,0.615 C22.798,0.615 23.847,3.507 23.847,7.072 L23.847,7.072 L23.847,7.072 Z"></path>
                        <path d="M50.132,7.072 C50.132,10.636 49.082,13.527 47.787,13.527 L29.517,13.527 C28.223,13.527 27.172,10.636 27.172,7.072 L27.172,7.072 C27.172,3.507 28.223,0.615 29.517,0.615 L47.787,0.615 C49.082,0.615 50.132,3.507 50.132,7.072 L50.132,7.072 L50.132,7.072 Z"></path>
                        <path d="M76.417,7.072 C76.417,10.636 75.367,13.527 74.073,13.527 L55.802,13.527 C54.507,13.527 53.458,10.636 53.458,7.072 L53.458,7.072 C53.458,3.507 54.507,0.615 55.802,0.615 L74.073,0.615 C75.367,0.615 76.417,3.507 76.417,7.072 L76.417,7.072 L76.417,7.072 Z"></path>
                        <path d="M102.702,7.072 C102.702,10.636 101.652,13.527 100.358,13.527 L82.087,13.527 C80.792,13.527 79.743,10.636 79.743,7.072 L79.743,7.072 C79.743,3.507 80.792,0.615 82.087,0.615 L100.358,0.615 C101.652,0.615 102.702,3.507 102.702,7.072 L102.702,7.072 L102.702,7.072 Z"></path>
                        <path d="M128.987,7.072 C128.987,10.636 127.936,13.527 126.642,13.527 L108.371,13.527 C107.076,13.527 106.027,10.636 106.027,7.072 L106.027,7.072 C106.027,3.507 107.076,0.615 108.371,0.615 L126.642,0.615 C127.937,0.615 128.987,3.507 128.987,7.072 L128.987,7.072 L128.987,7.072 Z"></path>
                    </g>
                    <g transform="translate(158.000000, 5.000000)" id="Shape" fill="#000000">
                        <path d="M23.296,7.072 C23.296,10.636 22.247,13.527 20.952,13.527 L2.682,13.527 C1.387,13.527 0.337,10.636 0.337,7.072 L0.337,7.072 C0.337,3.507 1.387,0.615 2.682,0.615 L20.952,0.615 C22.247,0.615 23.296,3.507 23.296,7.072 L23.296,7.072 L23.296,7.072 Z"></path>
                        <path d="M49.581,7.072 C49.581,10.636 48.532,13.527 47.237,13.527 L28.967,13.527 C27.672,13.527 26.623,10.636 26.623,7.072 L26.623,7.072 C26.623,3.507 27.672,0.615 28.967,0.615 L47.237,0.615 C48.532,0.615 49.581,3.507 49.581,7.072 L49.581,7.072 L49.581,7.072 Z"></path>
                        <path d="M75.867,7.072 C75.867,10.636 74.816,13.527 73.522,13.527 L55.251,13.527 C53.956,13.527 52.907,10.636 52.907,7.072 L52.907,7.072 C52.907,3.507 53.956,0.615 55.251,0.615 L73.522,0.615 C74.816,0.615 75.867,3.507 75.867,7.072 L75.867,7.072 L75.867,7.072 Z"></path>
                        <path d="M102.15,7.072 C102.15,10.636 101.101,13.527 99.806,13.527 L81.536,13.527 C80.241,13.527 79.192,10.636 79.192,7.072 L79.192,7.072 C79.192,3.507 80.241,0.615 81.536,0.615 L99.806,0.615 C101.102,0.615 102.15,3.507 102.15,7.072 L102.15,7.072 L102.15,7.072 Z"></path>
                        <path d="M128.436,7.072 C128.436,10.636 127.387,13.527 126.092,13.527 L107.822,13.527 C106.527,13.527 105.478,10.636 105.478,7.072 L105.478,7.072 C105.478,3.507 106.527,0.615 107.822,0.615 L126.092,0.615 C127.387,0.615 128.436,3.507 128.436,7.072 L128.436,7.072 L128.436,7.072 Z"></path>
                    </g>
                    <g transform="translate(305.000000, 5.000000)" id="Shape" fill="#000000">
                        <path d="M23.748,7.072 C23.748,10.636 22.699,13.527 21.404,13.527 L3.134,13.527 C1.838,13.527 0.79,10.636 0.79,7.072 L0.79,7.072 C0.79,3.507 1.838,0.615 3.134,0.615 L21.404,0.615 C22.699,0.615 23.748,3.507 23.748,7.072 L23.748,7.072 L23.748,7.072 Z"></path>
                        <path d="M50.033,7.072 C50.033,10.636 48.984,13.527 47.689,13.527 L29.418,13.527 C28.124,13.527 27.073,10.636 27.073,7.072 L27.073,7.072 C27.073,3.507 28.124,0.615 29.418,0.615 L47.689,0.615 C48.984,0.615 50.033,3.507 50.033,7.072 L50.033,7.072 L50.033,7.072 Z"></path>
                        <path d="M76.318,7.072 C76.318,10.636 75.267,13.527 73.973,13.527 L55.703,13.527 C54.409,13.527 53.358,10.636 53.358,7.072 L53.358,7.072 C53.358,3.507 54.409,0.615 55.703,0.615 L73.973,0.615 C75.268,0.615 76.318,3.507 76.318,7.072 L76.318,7.072 L76.318,7.072 Z"></path>
                        <path d="M102.604,7.072 C102.604,10.636 101.554,13.527 100.26,13.527 L81.989,13.527 C80.695,13.527 79.644,10.636 79.644,7.072 L79.644,7.072 C79.644,3.507 80.695,0.615 81.989,0.615 L100.26,0.615 C101.554,0.615 102.604,3.507 102.604,7.072 L102.604,7.072 L102.604,7.072 Z"></path>
                    </g>
                    <g transform="translate(17.000000, 29.000000)" id="Shape" fill="#1D1D1B">
                        <path d="M313.494,0.879 L306.071,0.879 L305.568,0.076 L296.474,0.076 C296.142,0.666 295.945,1.342 295.945,2.067 C295.945,4.322 297.771,6.15 300.028,6.15 C302.228,6.15 304.017,4.407 304.101,2.225 L315.462,2.225 C315.546,4.407 317.335,6.15 319.537,6.15 C321.791,6.15 323.619,4.322 323.619,2.067 C323.619,1.341 323.422,0.666 323.089,0.076 L313.995,0.076 L313.494,0.879 L313.494,0.879 Z"></path>
                        <path d="M376.57,3.858 L376.57,0.076 L324.086,0.076 L324.086,2.713 L333.14,2.713 L333.14,3.744 L334.4,3.744 L334.4,2.655 L336.061,2.655 L336.061,4.374 L345.688,4.374 L345.688,2.77 L351.317,2.77 L351.317,3.858 L376.57,3.858 Z"></path>
                        <path d="M377.627,2.067 C377.627,4.322 379.455,6.15 381.709,6.15 C383.912,6.15 385.701,4.407 385.785,2.225 L397.145,2.225 C397.229,4.407 399.018,6.15 401.22,6.15 C403.474,6.15 405.302,4.322 405.302,2.067 C405.302,1.341 405.105,0.666 404.772,0.076 L378.158,0.076 C377.824,0.666 377.627,1.342 377.627,2.067 L377.627,2.067 Z"></path>
                        <path d="M407.211,1.051 C407.211,2.538 408.418,3.744 409.904,3.744 L427.265,3.744 C428.753,3.744 429.958,2.538 429.958,1.051 C429.958,0.705 429.886,0.379 429.765,0.076 L407.404,0.076 C407.284,0.379 407.211,0.705 407.211,1.051 L407.211,1.051 Z"></path>
                        <path d="M99.481,0.879 L92.06,0.879 L91.557,0.076 L82.463,0.076 C82.13,0.666 81.934,1.342 81.934,2.067 C81.934,4.322 83.761,6.15 86.016,6.15 C88.217,6.15 90.006,4.407 90.09,2.225 L101.451,2.225 C101.534,4.407 103.324,6.15 105.525,6.15 C107.779,6.15 109.607,4.322 109.607,2.067 C109.607,1.341 109.41,0.666 109.078,0.076 L99.984,0.076 L99.481,0.879 L99.481,0.879 Z"></path>
                        <path d="M4.333,6.15 C6.536,6.15 8.325,4.407 8.408,2.225 L19.769,2.225 C19.852,4.407 21.641,6.15 23.844,6.15 C26.098,6.15 27.925,4.322 27.925,2.067 C27.925,1.341 27.729,0.666 27.395,0.076 L18.302,0.076 L17.799,0.879 L10.377,0.879 L9.873,0.076 L0.781,0.076 C0.447,0.666 0.25,1.342 0.25,2.067 C0.251,4.322 2.079,6.15 4.333,6.15 L4.333,6.15 Z"></path>
                        <path d="M249.019,0.879 L241.597,0.879 L241.094,0.076 L232,0.076 C231.668,0.666 231.471,1.342 231.471,2.067 C231.471,4.322 233.297,6.15 235.553,6.15 C237.754,6.15 239.544,4.407 239.627,2.225 L250.988,2.225 C251.071,4.407 252.86,6.15 255.062,6.15 C257.316,6.15 259.144,4.322 259.144,2.067 C259.144,1.341 258.948,0.666 258.615,0.076 L249.521,0.076 L249.019,0.879 L249.019,0.879 Z"></path>
                        <path d="M167.336,0.879 L159.914,0.879 L159.411,0.076 L150.317,0.076 C149.984,0.666 149.788,1.342 149.788,2.067 C149.788,4.322 151.615,6.15 153.87,6.15 C156.072,6.15 157.861,4.407 157.945,2.225 L169.305,2.225 C169.389,4.407 171.178,6.15 173.381,6.15 C175.635,6.15 177.461,4.322 177.461,2.067 C177.461,1.341 177.264,0.666 176.932,0.076 L167.838,0.076 L167.336,0.879 L167.336,0.879 Z"></path>
                    </g>
                    <g transform="translate(26.000000, 3.000000)" id="Shape" fill="#000000">
                        <path d="M150.914,26.879 L158.336,26.879 L158.946,25.905 L159.127,25.618 L159.137,25.602 L150.124,25.618 L150.914,26.879 Z"></path>
                        <path d="M1.378,26.879 L8.8,26.879 L9.41,25.905 L9.59,25.618 L9.601,25.602 L0.587,25.618 L1.378,26.879 Z"></path>
                        <path d="M82.271,25.618 L82.45,25.905 L83.061,26.879 L90.481,26.879 L91.272,25.618 L82.261,25.602 L82.271,25.618 Z"></path>
                        <path d="M231.807,25.618 L231.986,25.905 L232.597,26.879 L240.019,26.879 L240.809,25.618 L231.796,25.602 L231.807,25.618 Z"></path>
                        <path d="M297.071,26.879 L304.494,26.879 L305.283,25.618 L296.281,25.618 L297.071,26.879 Z"></path>
                        <path d="M404.242,7.785 L408.281,7.785 C408.712,7.785 414.898,10.448 415.674,10.448 L420.186,10.448 C420.586,10.448 416.762,6.197 412.543,3.734 C409.279,1.829 405.073,0.892 404.572,0.904 C404.367,0.909 404.233,0.931 404.144,0.962 L403.983,0.962 L403.983,1.516 L403.983,7.412 C403.983,7.622 403.971,7.785 404.242,7.785 L404.242,7.785 Z"></path>
                    </g>
                    <path d="M429.601,17.7 C429.554,17.653 429.459,17.635 429.386,17.635 C428.994,17.628 428.602,17.631 428.21,17.632 C428.163,17.632 428.116,17.644 428.07,17.65 C428.049,17.679 428.029,17.709 428.008,17.738 C428.684,18.395 429.358,19.052 430.038,19.717 C429.163,19.717 428.293,19.713 427.422,19.719 C427.228,19.721 427.081,19.657 426.947,19.521 C426.486,19.05 426.013,18.593 425.559,18.118 C425.218,17.763 424.802,17.615 424.325,17.613 C423.408,17.611 422.491,17.617 421.573,17.61 C421.427,17.609 421.325,17.656 421.225,17.757 C420.652,18.339 420.072,18.915 419.496,19.493 C419.244,19.745 418.994,19.999 418.74,20.256 C418.788,20.309 418.817,20.345 418.85,20.377 C419.527,21.053 420.232,21.703 420.871,22.413 C421.229,22.812 421.611,22.963 422.12,22.899 C422.304,22.876 422.492,22.896 422.679,22.894 C422.728,22.894 422.777,22.883 422.876,22.872 C422.17,22.176 421.497,21.512 420.824,20.848 C420.835,20.829 420.846,20.811 420.858,20.792 C421.713,20.792 422.57,20.798 423.425,20.788 C423.65,20.785 423.819,20.853 423.973,21.013 C424.442,21.492 424.923,21.96 425.393,22.44 C425.695,22.748 426.063,22.891 426.484,22.893 C427.448,22.9 428.412,22.898 429.376,22.891 C429.463,22.89 429.571,22.846 429.635,22.786 C429.939,22.498 430.229,22.196 430.527,21.902 C431.074,21.362 431.624,20.821 432.182,20.273 C431.306,19.396 430.456,18.545 429.601,17.7 L429.601,17.7 Z M429.351,21.562 C429.172,21.763 428.978,21.833 428.71,21.827 C428.006,21.807 427.302,21.817 426.597,21.822 C426.392,21.823 426.233,21.763 426.084,21.611 C425.607,21.121 425.117,20.644 424.633,20.161 C424.329,19.86 423.963,19.717 423.537,19.717 L420.797,19.717 C420.998,19.515 421.192,19.362 421.333,19.17 C421.631,18.767 422.009,18.649 422.501,18.682 C423.109,18.723 423.723,18.696 424.333,18.69 C424.527,18.688 424.678,18.753 424.812,18.89 C425.292,19.378 425.777,19.861 426.259,20.346 C426.566,20.656 426.939,20.795 427.373,20.793 C428.19,20.79 429.007,20.792 429.824,20.792 L430.054,20.792 C430.062,20.808 430.069,20.823 430.076,20.839 C429.834,21.078 429.577,21.306 429.351,21.562 L429.351,21.562 Z" id="Shape" fill="#000000"></path>
                </g>
            </g>
        </g>
    </g>
</svg>