<?xml version="1.0" encoding="UTF-8" standalone="no"?>
<svg width="1271px" height="431px" viewBox="0 0 1271 431" version="1.1" xmlns="http://www.w3.org/2000/svg" xmlns:xlink="http://www.w3.org/1999/xlink" xmlns:sketch="http://www.bohemiancoding.com/sketch/ns">
    <!-- Generator: Sketch 3.4.4 (17249) - http://www.bohemiancoding.com/sketch -->
    <title>locatie</title>
    <desc>Created with Sketch.</desc>
    <defs></defs>
    <g id="Page-1" stroke="none" stroke-width="1" fill="none" fill-rule="evenodd" sketch:type="MSPage">
        <g id="locatie" sketch:type="MSLayerGroup" transform="translate(-67.000000, -276.000000)">
            <g id="Background"></g>
            <g id="Objects" transform="translate(65.000000, 278.000000)">
                <g id="Group" transform="translate(193.000000, 202.000000)" sketch:type="MSShapeGroup">
                    <path d="M52.018,0.694 L0.5,44.044 L0.5,215.17 L52.018,215.17 L52.018,0.694 Z" id="Shape" fill="#C9C9C9"></path>
                    <path d="M52.018,0.694 L0.5,44.044 L0.5,215.17 L52.018,215.17 L52.018,0.694 Z" id="Shape" fill="#5A5A59"></path>
                    <circle id="Oval" fill="#C9C9C9" cx="14.636" cy="63.51" r="8.481"></circle>
                    <circle id="Oval" fill="#C9C9C9" cx="37.882" cy="63.51" r="8.481"></circle>
                    <circle id="Oval" fill="#C9C9C9" cx="14.636" cy="87.213" r="8.481"></circle>
                    <circle id="Oval" fill="#C9C9C9" cx="37.882" cy="87.213" r="8.481"></circle>
                    <circle id="Oval" fill="#C9C9C9" cx="14.636" cy="110.915" r="8.481"></circle>
                    <circle id="Oval" fill="#C9C9C9" cx="37.882" cy="110.915" r="8.481"></circle>
                    <circle id="Oval" fill="#C9C9C9" cx="14.636" cy="134.618" r="8.481"></circle>
                    <circle id="Oval" fill="#C9C9C9" cx="37.882" cy="134.618" r="8.481"></circle>
                    <circle id="Oval" fill="#C9C9C9" cx="14.636" cy="158.321" r="8.481"></circle>
                    <circle id="Oval" fill="#C9C9C9" cx="37.882" cy="158.321" r="8.481"></circle>
                    <circle id="Oval" fill="#C9C9C9" cx="14.636" cy="182.024" r="8.481"></circle>
                    <circle id="Oval" fill="#C9C9C9" cx="37.882" cy="182.024" r="8.481"></circle>
                </g>
                <g id="Group" transform="translate(232.000000, 270.000000)" sketch:type="MSShapeGroup">
                    <path d="M228.203,107.299 C228.203,109.625 226.299,111.529 223.973,111.529 L13.226,111.529 C10.899,111.529 8.995,109.625 8.995,107.299 L8.995,4.365 C8.995,2.039 10.899,0.135 13.226,0.135 L223.973,0.135 C226.299,0.135 228.203,2.039 228.203,4.365 L228.203,107.299 L228.203,107.299 Z" id="Shape" fill="#E0DDCD"></path>
                    <path d="M237.138,132.912 C237.138,135.464 235.05,137.552 232.498,137.552 L4.7,137.552 C2.148,137.552 0.06,135.464 0.06,132.912 L0.06,18.332 C0.06,15.78 2.148,13.692 4.7,13.692 L232.498,13.692 C235.05,13.692 237.138,15.78 237.138,18.332 L237.138,132.912 L237.138,132.912 Z" id="Shape" fill="#E0DDCD"></path>
                    <rect id="Rectangle-path" fill="#CDCABC" x="19.752" y="31.127" width="2.914" height="106.425"></rect>
                    <rect id="Rectangle-path" fill="#CDCABC" x="0.061" y="31.127" width="2.912" height="106.425"></rect>
                    <rect id="Rectangle-path" fill="#CDCABC" x="39.25" y="31.127" width="2.913" height="106.425"></rect>
                    <rect id="Rectangle-path" fill="#CDCABC" x="58.748" y="31.127" width="2.912" height="106.425"></rect>
                    <rect id="Rectangle-path" fill="#CDCABC" x="78.246" y="31.127" width="2.912" height="106.425"></rect>
                    <rect id="Rectangle-path" fill="#CDCABC" x="97.743" y="31.127" width="2.911" height="106.425"></rect>
                    <rect id="Rectangle-path" fill="#CDCABC" x="117.24" y="31.127" width="2.912" height="106.425"></rect>
                    <rect id="Rectangle-path" fill="#CDCABC" x="136.737" y="31.127" width="2.912" height="106.425"></rect>
                    <rect id="Rectangle-path" fill="#CDCABC" x="175.732" y="31.127" width="2.913" height="106.425"></rect>
                    <rect id="Rectangle-path" fill="#CDCABC" x="195.23" y="31.127" width="2.913" height="106.425"></rect>
                    <rect id="Rectangle-path" fill="#CDCABC" x="214.729" y="31.127" width="2.912" height="106.425"></rect>
                    <rect id="Rectangle-path" fill="#CDCABC" x="234.226" y="31.127" width="2.912" height="106.425"></rect>
                    <rect id="Rectangle-path" fill="#CDCABC" x="156.234" y="31.127" width="2.913" height="106.425"></rect>
                    <rect id="Rectangle-path" fill="#CDCABC" x="0.061" y="25.141" width="237.078" height="5.985"></rect>
                    <rect id="Rectangle-path" fill="#CDCABC" x="0.061" y="110.209" width="237.078" height="3.924"></rect>
                    <rect id="Rectangle-path" fill="#CDCABC" x="2.002" y="45.93" width="232.806" height="1.821"></rect>
                    <rect id="Rectangle-path" fill="#CDCABC" x="2.002" y="62.062" width="232.806" height="1.822"></rect>
                    <rect id="Rectangle-path" fill="#CDCABC" x="2.002" y="78.195" width="232.806" height="1.822"></rect>
                    <rect id="Rectangle-path" fill="#CDCABC" x="2.002" y="94.329" width="232.806" height="1.82"></rect>
                    <path d="M39.923,126.069 C40.79,126.019 41.497,125.364 41.497,124.496 C41.497,124.308 41.458,124.128 41.396,123.959 L39.05,114.141 L25.511,114.141 L17.1,114.141 L3.048,114.141 L0.7,123.959 C0.638,124.128 0.6,124.308 0.6,124.496 C0.6,125.364 1.304,126.069 2.173,126.069 C3.042,126.069 3.746,125.364 3.746,124.496 C3.746,125.364 4.451,126.069 5.318,126.069 C6.187,126.069 6.891,125.364 6.891,124.496 C6.891,125.364 7.596,126.069 8.465,126.069 C9.333,126.069 10.038,125.364 10.038,124.496 C10.038,125.364 10.742,126.069 11.61,126.069 C12.478,126.069 13.183,125.364 13.183,124.496 C13.183,125.364 13.887,126.069 14.757,126.069 C15.626,126.069 16.33,125.364 16.33,124.496 C16.33,125.364 17.034,126.069 17.903,126.069 C18.772,126.069 19.475,125.364 19.475,124.496 C19.475,125.364 20.18,126.069 21.049,126.069 C21.918,126.069 22.622,125.364 22.622,124.496 C22.622,125.364 23.326,126.069 24.195,126.069 C25.063,126.069 25.768,125.364 25.768,124.496 C25.768,125.364 26.472,126.069 27.342,126.069 C28.211,126.069 28.915,125.364 28.915,124.496 C28.915,125.364 29.619,126.069 30.487,126.069 C31.356,126.069 32.06,125.364 32.06,124.496 C32.06,125.364 32.764,126.069 33.633,126.069 C34.503,126.069 35.207,125.364 35.207,124.496 C35.207,125.364 35.91,126.069 36.78,126.069 C36.78,126.069 38.71,126.323 38.501,124.317 C38.499,124.317 38.547,126.148 39.923,126.069 L39.923,126.069 Z" id="Shape" fill="#ABA99E"></path>
                    <path d="M98.351,126.069 C99.218,126.019 99.925,125.364 99.925,124.496 C99.925,124.308 99.886,124.128 99.824,123.959 L97.477,114.141 L83.939,114.141 L75.528,114.141 L61.476,114.141 L59.128,123.959 C59.066,124.128 59.028,124.308 59.028,124.496 C59.028,125.364 59.732,126.069 60.601,126.069 C61.47,126.069 62.174,125.364 62.174,124.496 C62.174,125.364 62.879,126.069 63.746,126.069 C64.615,126.069 65.319,125.364 65.319,124.496 C65.319,125.364 66.024,126.069 66.893,126.069 C67.761,126.069 68.466,125.364 68.466,124.496 C68.466,125.364 69.17,126.069 70.038,126.069 C70.906,126.069 71.611,125.364 71.611,124.496 C71.611,125.364 72.315,126.069 73.185,126.069 C74.054,126.069 74.758,125.364 74.758,124.496 C74.758,125.364 75.462,126.069 76.331,126.069 C77.2,126.069 77.903,125.364 77.903,124.496 C77.903,125.364 78.608,126.069 79.477,126.069 C80.346,126.069 81.05,125.364 81.05,124.496 C81.05,125.364 81.754,126.069 82.623,126.069 C83.491,126.069 84.196,125.364 84.196,124.496 C84.196,125.364 84.9,126.069 85.77,126.069 C86.639,126.069 87.343,125.364 87.343,124.496 C87.343,125.364 88.047,126.069 88.915,126.069 C89.783,126.069 90.488,125.364 90.488,124.496 C90.488,125.364 91.191,126.069 92.06,126.069 C92.929,126.069 93.634,125.364 93.634,124.496 C93.634,125.364 94.337,126.069 95.206,126.069 C95.206,126.069 97.136,126.323 96.927,124.317 C96.927,124.317 96.975,126.148 98.351,126.069 L98.351,126.069 Z" id="Shape" fill="#ABA99E"></path>
                    <path d="M156.946,126.069 C157.813,126.019 158.52,125.364 158.52,124.496 C158.52,124.308 158.481,124.128 158.419,123.959 L156.072,114.141 L142.533,114.141 L134.123,114.141 L120.07,114.141 L117.722,123.959 C117.66,124.128 117.622,124.308 117.622,124.496 C117.622,125.364 118.325,126.069 119.194,126.069 C120.063,126.069 120.767,125.364 120.767,124.496 C120.767,125.364 121.471,126.069 122.339,126.069 C123.208,126.069 123.912,125.364 123.912,124.496 C123.912,125.364 124.617,126.069 125.486,126.069 C126.353,126.069 127.058,125.364 127.058,124.496 C127.058,125.364 127.763,126.069 128.63,126.069 C129.499,126.069 130.203,125.364 130.203,124.496 C130.203,125.364 130.907,126.069 131.776,126.069 C132.645,126.069 133.349,125.364 133.349,124.496 C133.349,125.364 134.053,126.069 134.922,126.069 C135.79,126.069 136.494,125.364 136.494,124.496 C136.494,125.364 137.199,126.069 138.067,126.069 C138.935,126.069 139.64,125.364 139.64,124.496 C139.64,125.364 140.344,126.069 141.212,126.069 C142.081,126.069 142.785,125.364 142.785,124.496 C142.785,125.364 143.489,126.069 144.358,126.069 C145.227,126.069 145.931,125.364 145.931,124.496 C145.931,125.364 146.635,126.069 147.503,126.069 C148.371,126.069 149.076,125.364 149.076,124.496 C149.076,125.364 149.779,126.069 150.648,126.069 C151.517,126.069 152.222,125.364 152.222,124.496 C152.222,125.364 152.925,126.069 153.794,126.069 C153.794,126.069 155.724,126.323 155.515,124.317 C155.522,124.317 155.57,126.148 156.946,126.069 L156.946,126.069 Z" id="Shape" fill="#ABA99E"></path>
                    <path d="M215.69,126.069 C216.561,126.019 217.272,125.364 217.272,124.496 C217.272,124.308 217.233,124.128 217.17,123.959 L214.812,114.141 L201.204,114.141 L192.751,114.141 L178.626,114.141 L176.267,123.959 C176.205,124.128 176.166,124.308 176.166,124.496 C176.166,125.364 176.874,126.069 177.747,126.069 C178.621,126.069 179.328,125.364 179.328,124.496 C179.328,125.364 180.036,126.069 180.908,126.069 C181.782,126.069 182.489,125.364 182.489,124.496 C182.489,125.364 183.198,126.069 184.071,126.069 C184.944,126.069 185.653,125.364 185.653,124.496 C185.653,125.364 186.36,126.069 187.233,126.069 C188.105,126.069 188.813,125.364 188.813,124.496 C188.813,125.364 189.521,126.069 190.395,126.069 C191.268,126.069 191.976,125.364 191.976,124.496 C191.976,125.364 192.684,126.069 193.557,126.069 C194.43,126.069 195.137,125.364 195.137,124.496 C195.137,125.364 195.846,126.069 196.719,126.069 C197.592,126.069 198.299,125.364 198.299,124.496 C198.299,125.364 199.008,126.069 199.881,126.069 C200.753,126.069 201.461,125.364 201.461,124.496 C201.461,125.364 202.169,126.069 203.043,126.069 C203.916,126.069 204.623,125.364 204.623,124.496 C204.623,125.364 205.332,126.069 206.204,126.069 C207.077,126.069 207.785,125.364 207.785,124.496 C207.785,125.364 208.492,126.069 209.365,126.069 C210.24,126.069 210.947,125.364 210.947,124.496 C210.947,125.364 211.654,126.069 212.528,126.069 C212.528,126.069 214.467,126.323 214.257,124.317 C214.259,124.317 214.307,126.148 215.69,126.069 L215.69,126.069 Z" id="Shape" fill="#ABA99E"></path>
                </g>
                <path d="M800.06,76.052 C804.298,76.052 808.152,77.656 811.085,80.272 C815.487,72.109 824.116,66.558 834.044,66.558 C839.501,66.558 844.558,68.24 848.747,71.106 C856.034,59.08 869.245,51.042 884.335,51.042 C897.774,51.042 909.718,57.422 917.319,67.314 C919.288,66.835 921.337,66.558 923.448,66.558 C937.848,66.558 949.522,78.232 949.522,92.63 L783.481,92.63 C783.481,83.475 790.905,76.052 800.06,76.052 L800.06,76.052 Z" id="Shape" fill="#FFFFFF" sketch:type="MSShapeGroup"></path>
                <path d="M818.783,115.108 C816.496,115.108 814.416,115.974 812.832,117.386 C810.455,112.98 805.801,109.985 800.443,109.985 C797.5,109.985 794.769,110.892 792.507,112.438 C788.573,105.948 781.445,101.611 773.302,101.611 C766.05,101.611 759.605,105.054 755.501,110.392 C754.439,110.135 753.335,109.985 752.194,109.985 C744.423,109.985 738.122,116.285 738.122,124.054 L827.727,124.054 C827.729,119.114 823.723,115.108 818.783,115.108 L818.783,115.108 Z" id="Shape" fill="#FFFFFF" sketch:type="MSShapeGroup"></path>
                <path d="M356.975,121.836 C352.737,121.836 348.883,123.44 345.952,126.055 C341.546,117.893 332.919,112.341 322.991,112.341 C317.536,112.341 312.477,114.022 308.29,116.889 C300.999,104.863 287.79,96.825 272.7,96.825 C259.262,96.825 247.319,103.206 239.716,113.097 C237.747,112.618 235.699,112.341 233.587,112.341 C219.188,112.341 207.514,124.016 207.514,138.413 L373.556,138.413 C373.555,129.258 366.131,121.836 356.975,121.836 L356.975,121.836 Z" id="Shape" fill="#FFFFFF" sketch:type="MSShapeGroup"></path>
                <path d="M241.112,138.084 C238.825,138.084 236.745,138.949 235.164,140.361 C232.788,135.955 228.131,132.96 222.774,132.96 C219.829,132.96 217.099,133.867 214.838,135.414 C210.905,128.925 203.775,124.586 195.632,124.586 C188.379,124.586 181.935,128.03 177.831,133.367 C176.77,133.109 175.665,132.96 174.524,132.96 C166.754,132.96 160.453,139.26 160.453,147.031 L250.059,147.031 C250.061,142.09 246.054,138.084 241.112,138.084 L241.112,138.084 Z" id="Shape" fill="#FFFFFF" sketch:type="MSShapeGroup"></path>
                <path d="M1095.393,137.727 C1099.631,137.727 1103.487,139.33 1106.418,141.946 C1110.822,133.784 1119.449,128.232 1129.377,128.232 C1134.834,128.232 1139.893,129.913 1144.08,132.78 C1151.369,120.753 1164.581,112.716 1179.671,112.716 C1193.109,112.716 1205.052,119.096 1212.653,128.987 C1214.624,128.509 1216.671,128.232 1218.784,128.232 C1233.182,128.232 1244.856,139.907 1244.856,154.304 L1078.814,154.304 C1078.814,145.148 1086.238,137.727 1095.393,137.727 L1095.393,137.727 Z" id="Shape" fill="#FFFFFF" sketch:type="MSShapeGroup"></path>
                <g id="Group" transform="translate(1141.000000, 203.000000)" sketch:type="MSShapeGroup">
                    <rect id="Rectangle-path" fill="#C9C9C9" x="0.11" y="95.062" width="67.514" height="114.176"></rect>
                    <rect id="Rectangle-path" fill="#9DC2C9" x="12.749" y="23.961" width="42.236" height="59.425"></rect>
                    <rect id="Rectangle-path" fill="#9DC2C9" x="30.704" y="0.824" width="6.328" height="59.425"></rect>
                    <path d="M39.999,71.434 L39.999,60.249 L67.624,60.249 L67.624,49.605 L0.11,49.605 L0.11,60.249 L27.737,60.249 L27.737,71.434 L0.11,71.434 L0.11,86.213 L27.737,86.213 L27.737,97.398 L0.11,97.398 L0.11,112.176 L27.737,112.176 L27.737,123.362 L0.11,123.362 L0.11,138.14 L27.737,138.14 L27.737,149.326 L0.11,149.326 L0.11,164.104 L27.737,164.104 L27.737,175.289 L0.11,175.289 L0.11,190.067 L27.737,190.067 L27.737,201.253 L0.11,201.253 L0.11,209.237 L67.624,209.237 L67.624,201.253 L39.999,201.253 L39.999,190.067 L67.624,190.067 L67.624,175.289 L39.999,175.289 L39.999,164.104 L67.624,164.104 L67.624,149.326 L39.999,149.326 L39.999,138.14 L67.624,138.14 L67.624,123.362 L39.999,123.362 L39.999,112.176 L67.624,112.176 L67.624,97.398 L39.999,97.398 L39.999,86.213 L67.624,86.213 L67.624,71.434 L39.999,71.434 Z" id="Shape" fill="#9DC2C9"></path>
                    <rect id="Rectangle-path" fill="#249FA7" x="0.11" y="60.249" width="27.627" height="11.185"></rect>
                    <rect id="Rectangle-path" fill="#249FA7" x="39.999" y="60.249" width="27.625" height="11.185"></rect>
                    <rect id="Rectangle-path" fill="#249FA7" x="0.11" y="86.213" width="27.627" height="11.186"></rect>
                    <rect id="Rectangle-path" fill="#249FA7" x="39.999" y="86.213" width="27.625" height="11.186"></rect>
                    <rect id="Rectangle-path" fill="#C9C9C9" x="0.11" y="112.176" width="27.627" height="11.187"></rect>
                    <rect id="Rectangle-path" fill="#249FA7" x="39.999" y="112.176" width="27.625" height="11.187"></rect>
                    <rect id="Rectangle-path" fill="#C9C9C9" x="0.11" y="138.14" width="27.627" height="11.187"></rect>
                    <rect id="Rectangle-path" fill="#249FA7" x="39.999" y="138.14" width="27.625" height="11.187"></rect>
                    <rect id="Rectangle-path" fill="#C9C9C9" x="0.11" y="164.104" width="27.627" height="11.186"></rect>
                    <rect id="Rectangle-path" fill="#249FA7" x="39.999" y="164.104" width="27.625" height="11.186"></rect>
                    <rect id="Rectangle-path" fill="#C9C9C9" x="0.11" y="188.695" width="29.25" height="14.579"></rect>
                    <rect id="Rectangle-path" fill="#249FA7" x="37.228" y="187.02" width="30.396" height="17.765"></rect>
                </g>
                <g id="Group" transform="translate(44.000000, 155.000000)" sketch:type="MSShapeGroup">
                    <rect id="Rectangle-path" fill="#DCDCDC" x="0.055" y="0.163" width="70.129" height="262.446"></rect>
                    <rect id="Rectangle-path" fill="#FFFFFF" x="9.029" y="26.105" width="50.414" height="8.337"></rect>
                    <rect id="Rectangle-path" fill="#DCDCDC" x="9.029" y="54.24" width="50.414" height="8.337"></rect>
                    <rect id="Rectangle-path" fill="#DCDCDC" x="9.029" y="82.375" width="50.414" height="8.337"></rect>
                    <rect id="Rectangle-path" fill="#DCDCDC" x="9.029" y="110.51" width="50.414" height="8.337"></rect>
                    <rect id="Rectangle-path" fill="#FFFFFF" x="9.029" y="138.645" width="50.414" height="8.337"></rect>
                    <rect id="Rectangle-path" fill="#DCDCDC" x="9.029" y="166.779" width="50.414" height="8.337"></rect>
                    <rect id="Rectangle-path" fill="#FFFFFF" x="9.029" y="194.914" width="50.414" height="8.337"></rect>
                    <rect id="Rectangle-path" fill="#DCDCDC" x="9.029" y="223.049" width="50.414" height="8.337"></rect>
                    <rect id="Rectangle-path" fill="#FFFFFF" x="0.055" y="0.163" width="70.129" height="262.446"></rect>
                    <rect id="Rectangle-path" fill="#DCDCDC" x="9.029" y="26.105" width="50.414" height="8.337"></rect>
                    <rect id="Rectangle-path" fill="#DCDCDC" x="9.029" y="54.24" width="50.414" height="8.337"></rect>
                    <rect id="Rectangle-path" fill="#DCDCDC" x="9.029" y="82.375" width="50.414" height="8.337"></rect>
                    <rect id="Rectangle-path" fill="#DCDCDC" x="9.029" y="110.51" width="50.414" height="8.337"></rect>
                    <rect id="Rectangle-path" fill="#DCDCDC" x="9.029" y="138.645" width="50.414" height="8.337"></rect>
                    <rect id="Rectangle-path" fill="#DCDCDC" x="9.029" y="166.779" width="50.414" height="8.337"></rect>
                    <rect id="Rectangle-path" fill="#DCDCDC" x="9.029" y="194.914" width="50.414" height="8.337"></rect>
                </g>
                <g id="Group" transform="translate(90.000000, 202.000000)" sketch:type="MSShapeGroup">
                    <path d="M51.98,0.694 L0.462,44.044 L0.462,215.17 L51.98,215.17 L51.98,0.694 Z" id="Shape" fill="#004860"></path>
                    <circle id="Oval" fill="#002738" cx="14.599" cy="60.887" r="8.481"></circle>
                    <circle id="Oval" fill="#002738" cx="37.846" cy="60.887" r="8.48"></circle>
                    <circle id="Oval" fill="#002738" cx="14.599" cy="84.59" r="8.481"></circle>
                    <circle id="Oval" fill="#002738" cx="37.846" cy="84.59" r="8.48"></circle>
                    <circle id="Oval" fill="#002738" cx="14.599" cy="108.293" r="8.481"></circle>
                    <circle id="Oval" fill="#DCDCDC" cx="37.846" cy="108.293" r="8.48"></circle>
                    <circle id="Oval" fill="#DCDCDC" cx="14.599" cy="131.995" r="8.481"></circle>
                    <circle id="Oval" fill="#DCDCDC" cx="37.846" cy="131.995" r="8.48"></circle>
                    <circle id="Oval" fill="#DCDCDC" cx="14.599" cy="155.698" r="8.481"></circle>
                    <circle id="Oval" fill="#DCDCDC" cx="37.846" cy="155.698" r="8.48"></circle>
                    <circle id="Oval" fill="#DCDCDC" cx="14.599" cy="179.401" r="8.481"></circle>
                    <circle id="Oval" fill="#DCDCDC" cx="37.846" cy="179.401" r="8.48"></circle>
                </g>
                <g id="Group" transform="translate(141.000000, 202.000000)" sketch:type="MSShapeGroup">
                    <path d="M52.5,0.694 L0.98,44.044 L0.98,215.17 L52.5,215.17 L52.5,0.694 Z" id="Shape" fill="#9DC2C9"></path>
                    <rect id="Rectangle-path" fill="#9DC2C9" x="3.717" y="60.042" width="6.412" height="15.271"></rect>
                    <rect id="Rectangle-path" fill="#249FA7" x="13.627" y="60.042" width="6.41" height="15.271"></rect>
                    <rect id="Rectangle-path" fill="#9DC2C9" x="23.535" y="60.042" width="6.41" height="15.271"></rect>
                    <rect id="Rectangle-path" fill="#249FA7" x="33.443" y="60.042" width="6.412" height="15.271"></rect>
                    <rect id="Rectangle-path" fill="#9DC2C9" x="43.352" y="60.042" width="6.412" height="15.271"></rect>
                    <rect id="Rectangle-path" fill="#9DC2C9" x="3.717" y="79.576" width="6.412" height="15.272"></rect>
                    <rect id="Rectangle-path" fill="#249FA7" x="13.627" y="79.576" width="6.41" height="15.272"></rect>
                    <rect id="Rectangle-path" fill="#9DC2C9" x="23.535" y="79.576" width="6.41" height="15.272"></rect>
                    <rect id="Rectangle-path" fill="#249FA7" x="33.443" y="79.576" width="6.412" height="15.272"></rect>
                    <rect id="Rectangle-path" fill="#9DC2C9" x="43.352" y="79.576" width="6.412" height="15.272"></rect>
                    <rect id="Rectangle-path" fill="#C9C9C9" x="3.717" y="99.111" width="6.412" height="15.271"></rect>
                    <rect id="Rectangle-path" fill="#249FA7" x="13.627" y="99.111" width="6.41" height="15.271"></rect>
                    <rect id="Rectangle-path" fill="#9DC2C9" x="23.535" y="99.111" width="6.41" height="15.271"></rect>
                    <rect id="Rectangle-path" fill="#C9C9C9" x="33.443" y="99.111" width="6.412" height="15.271"></rect>
                    <rect id="Rectangle-path" fill="#C9C9C9" x="43.352" y="99.111" width="6.412" height="15.271"></rect>
                    <rect id="Rectangle-path" fill="#C9C9C9" x="3.717" y="118.646" width="6.412" height="15.271"></rect>
                    <rect id="Rectangle-path" fill="#C9C9C9" x="13.627" y="118.646" width="6.41" height="15.271"></rect>
                    <rect id="Rectangle-path" fill="#C9C9C9" x="23.535" y="118.646" width="6.41" height="15.271"></rect>
                    <rect id="Rectangle-path" fill="#C9C9C9" x="33.443" y="118.646" width="6.412" height="15.271"></rect>
                    <rect id="Rectangle-path" fill="#C9C9C9" x="43.352" y="118.646" width="6.412" height="15.271"></rect>
                    <rect id="Rectangle-path" fill="#C9C9C9" x="3.717" y="138.18" width="6.412" height="15.271"></rect>
                    <rect id="Rectangle-path" fill="#C9C9C9" x="13.627" y="138.18" width="6.41" height="15.271"></rect>
                    <rect id="Rectangle-path" fill="#C9C9C9" x="23.535" y="138.18" width="6.41" height="15.271"></rect>
                    <rect id="Rectangle-path" fill="#C9C9C9" x="33.443" y="138.18" width="6.412" height="15.271"></rect>
                    <rect id="Rectangle-path" fill="#C9C9C9" x="43.352" y="138.18" width="6.412" height="15.271"></rect>
                    <rect id="Rectangle-path" fill="#C9C9C9" x="3.717" y="157.714" width="6.412" height="15.272"></rect>
                    <rect id="Rectangle-path" fill="#C9C9C9" x="13.627" y="157.714" width="6.41" height="15.272"></rect>
                    <rect id="Rectangle-path" fill="#C9C9C9" x="23.535" y="157.714" width="6.41" height="15.272"></rect>
                    <rect id="Rectangle-path" fill="#C9C9C9" x="33.443" y="157.714" width="6.412" height="15.272"></rect>
                    <rect id="Rectangle-path" fill="#C9C9C9" x="43.352" y="157.714" width="6.412" height="15.272"></rect>
                    <rect id="Rectangle-path" fill="#C9C9C9" x="3.717" y="177.249" width="6.412" height="15.271"></rect>
                    <rect id="Rectangle-path" fill="#C9C9C9" x="13.627" y="177.249" width="6.41" height="15.271"></rect>
                    <rect id="Rectangle-path" fill="#C9C9C9" x="23.535" y="177.249" width="6.41" height="15.271"></rect>
                    <rect id="Rectangle-path" fill="#C9C9C9" x="33.443" y="177.249" width="6.412" height="15.271"></rect>
                    <rect id="Rectangle-path" fill="#C9C9C9" x="43.352" y="177.249" width="6.412" height="15.271"></rect>
                </g>
                <g id="Group" transform="translate(989.000000, 95.000000)" sketch:type="MSShapeGroup">
                    <rect id="Rectangle-path" fill="#9DC2C9" x="0.888" y="0.605" width="70.127" height="322.004"></rect>
                    <rect id="Rectangle-path" fill="#249FA7" x="7.976" y="9.639" width="55.951" height="3.497"></rect>
                    <rect id="Rectangle-path" fill="#249FA7" x="7.976" y="21.958" width="55.951" height="3.497"></rect>
                    <rect id="Rectangle-path" fill="#249FA7" x="7.976" y="34.277" width="55.951" height="3.496"></rect>
                    <rect id="Rectangle-path" fill="#249FA7" x="7.976" y="46.596" width="55.951" height="3.497"></rect>
                    <rect id="Rectangle-path" fill="#249FA7" x="7.976" y="58.914" width="55.951" height="3.498"></rect>
                    <rect id="Rectangle-path" fill="#249FA7" x="7.976" y="71.233" width="55.951" height="3.497"></rect>
                    <rect id="Rectangle-path" fill="#249FA7" x="7.976" y="83.553" width="55.951" height="3.496"></rect>
                    <rect id="Rectangle-path" fill="#249FA7" x="7.976" y="95.871" width="55.951" height="3.497"></rect>
                    <rect id="Rectangle-path" fill="#249FA7" x="7.976" y="108.19" width="55.951" height="3.497"></rect>
                    <rect id="Rectangle-path" fill="#249FA7" x="7.976" y="120.509" width="55.951" height="3.497"></rect>
                    <rect id="Rectangle-path" fill="#249FA7" x="7.976" y="132.828" width="55.951" height="3.497"></rect>
                    <rect id="Rectangle-path" fill="#249FA7" x="7.976" y="145.146" width="55.951" height="3.497"></rect>
                    <rect id="Rectangle-path" fill="#249FA7" x="7.976" y="157.466" width="55.951" height="3.497"></rect>
                    <rect id="Rectangle-path" fill="#249FA7" x="7.976" y="169.785" width="55.951" height="3.496"></rect>
                    <rect id="Rectangle-path" fill="#249FA7" x="7.976" y="182.104" width="55.951" height="3.497"></rect>
                    <rect id="Rectangle-path" fill="#C9C9C9" x="7.976" y="194.422" width="55.951" height="3.498"></rect>
                    <rect id="Rectangle-path" fill="#C9C9C9" x="7.976" y="206.741" width="55.951" height="3.497"></rect>
                    <rect id="Rectangle-path" fill="#C9C9C9" x="7.976" y="219.061" width="55.951" height="3.496"></rect>
                    <rect id="Rectangle-path" fill="#C9C9C9" x="7.976" y="231.379" width="55.951" height="3.497"></rect>
                    <rect id="Rectangle-path" fill="#C9C9C9" x="7.976" y="243.698" width="55.951" height="3.497"></rect>
                    <rect id="Rectangle-path" fill="#C9C9C9" x="7.976" y="256.017" width="55.951" height="3.497"></rect>
                    <rect id="Rectangle-path" fill="#C9C9C9" x="7.976" y="268.336" width="55.951" height="3.497"></rect>
                    <rect id="Rectangle-path" fill="#C9C9C9" x="7.976" y="280.654" width="55.951" height="3.497"></rect>
                    <rect id="Rectangle-path" fill="#C9C9C9" x="7.976" y="292.974" width="55.951" height="3.497"></rect>
                </g>
                <g id="Group" transform="translate(907.000000, 0.000000)" sketch:type="MSShapeGroup">
                    <rect id="Rectangle-path" fill="#9DC2C9" x="0.06" y="0.656" width="70.127" height="322.004"></rect>
                    <rect id="Rectangle-path" fill="#249FA7" x="7.147" y="9.689" width="55.951" height="3.497"></rect>
                    <rect id="Rectangle-path" fill="#249FA7" x="7.147" y="22.009" width="55.951" height="3.497"></rect>
                    <rect id="Rectangle-path" fill="#249FA7" x="7.147" y="34.328" width="55.951" height="3.496"></rect>
                    <rect id="Rectangle-path" fill="#249FA7" x="7.147" y="46.646" width="55.951" height="3.497"></rect>
                    <rect id="Rectangle-path" fill="#249FA7" x="7.147" y="58.965" width="55.951" height="3.498"></rect>
                    <rect id="Rectangle-path" fill="#249FA7" x="7.147" y="71.284" width="55.951" height="3.497"></rect>
                    <rect id="Rectangle-path" fill="#249FA7" x="7.147" y="83.604" width="55.951" height="3.496"></rect>
                    <rect id="Rectangle-path" fill="#249FA7" x="7.147" y="95.922" width="55.951" height="3.497"></rect>
                    <rect id="Rectangle-path" fill="#249FA7" x="7.147" y="108.241" width="55.951" height="3.497"></rect>
                    <rect id="Rectangle-path" fill="#249FA7" x="7.147" y="120.56" width="55.951" height="3.497"></rect>
                    <rect id="Rectangle-path" fill="#249FA7" x="7.147" y="132.879" width="55.951" height="3.497"></rect>
                    <rect id="Rectangle-path" fill="#249FA7" x="7.147" y="145.197" width="55.951" height="3.497"></rect>
                    <rect id="Rectangle-path" fill="#249FA7" x="7.147" y="157.517" width="55.951" height="3.497"></rect>
                    <rect id="Rectangle-path" fill="#249FA7" x="7.147" y="169.836" width="55.951" height="3.496"></rect>
                    <rect id="Rectangle-path" fill="#249FA7" x="7.147" y="182.154" width="55.951" height="3.497"></rect>
                    <rect id="Rectangle-path" fill="#C9C9C9" x="7.147" y="194.473" width="55.951" height="3.498"></rect>
                    <rect id="Rectangle-path" fill="#C9C9C9" x="7.147" y="206.792" width="55.951" height="3.497"></rect>
                    <rect id="Rectangle-path" fill="#C9C9C9" x="7.147" y="219.111" width="55.951" height="3.496"></rect>
                    <rect id="Rectangle-path" fill="#C9C9C9" x="7.147" y="231.43" width="55.951" height="3.497"></rect>
                    <rect id="Rectangle-path" fill="#C9C9C9" x="7.147" y="243.749" width="55.951" height="3.497"></rect>
                    <rect id="Rectangle-path" fill="#C9C9C9" x="7.147" y="256.067" width="55.951" height="3.497"></rect>
                    <rect id="Rectangle-path" fill="#C9C9C9" x="7.147" y="268.387" width="55.951" height="3.497"></rect>
                    <rect id="Rectangle-path" fill="#C9C9C9" x="7.147" y="280.705" width="55.951" height="3.497"></rect>
                    <rect id="Rectangle-path" fill="#C9C9C9" x="7.147" y="293.024" width="55.951" height="3.497"></rect>
                </g>
                <g id="Group" transform="translate(1051.000000, 168.000000)" sketch:type="MSShapeGroup">
                    <rect id="Rectangle-path" fill="#FFFFFF" x="0.085" y="30.95" width="70.128" height="218.659"></rect>
                    <path d="M54.603,61.25 L15.694,61.25 L15.694,17.847 L35.148,0.649 L54.603,17.847 L54.603,61.25 Z" id="Shape" fill="#FFFFFF"></path>
                    <rect id="Rectangle-path" fill="#DCDCDC" x="25.063" y="18.273" width="6.994" height="16.421"></rect>
                    <rect id="Rectangle-path" fill="#DCDCDC" x="38.239" y="18.273" width="6.994" height="16.421"></rect>
                    <rect id="Rectangle-path" fill="#DCDCDC" x="11.998" y="44.829" width="6.994" height="16.421"></rect>
                    <rect id="Rectangle-path" fill="#DCDCDC" x="25.173" y="44.829" width="6.994" height="16.421"></rect>
                    <rect id="Rectangle-path" fill="#DCDCDC" x="38.131" y="44.829" width="6.994" height="16.421"></rect>
                    <rect id="Rectangle-path" fill="#DCDCDC" x="51.307" y="44.829" width="6.993" height="16.421"></rect>
                    <rect id="Rectangle-path" fill="#DCDCDC" x="11.998" y="67.435" width="6.994" height="16.421"></rect>
                    <rect id="Rectangle-path" fill="#DCDCDC" x="25.173" y="67.435" width="6.994" height="16.421"></rect>
                    <rect id="Rectangle-path" fill="#DCDCDC" x="38.131" y="67.435" width="6.994" height="16.421"></rect>
                    <rect id="Rectangle-path" fill="#DCDCDC" x="51.307" y="67.435" width="6.993" height="16.421"></rect>
                    <rect id="Rectangle-path" fill="#DCDCDC" x="11.998" y="90.04" width="6.994" height="16.421"></rect>
                    <rect id="Rectangle-path" fill="#DCDCDC" x="25.173" y="90.04" width="6.994" height="16.421"></rect>
                    <rect id="Rectangle-path" fill="#DCDCDC" x="38.131" y="90.04" width="6.994" height="16.421"></rect>
                    <rect id="Rectangle-path" fill="#DCDCDC" x="51.307" y="90.04" width="6.993" height="16.421"></rect>
                    <rect id="Rectangle-path" fill="#DCDCDC" x="11.998" y="112.646" width="6.994" height="16.421"></rect>
                    <rect id="Rectangle-path" fill="#DCDCDC" x="25.173" y="112.646" width="6.994" height="16.421"></rect>
                    <rect id="Rectangle-path" fill="#DCDCDC" x="38.131" y="112.646" width="6.994" height="16.421"></rect>
                    <rect id="Rectangle-path" fill="#DCDCDC" x="51.307" y="112.646" width="6.993" height="16.421"></rect>
                    <rect id="Rectangle-path" fill="#DCDCDC" x="11.998" y="135.251" width="6.994" height="16.421"></rect>
                    <rect id="Rectangle-path" fill="#DCDCDC" x="25.173" y="135.251" width="6.994" height="16.421"></rect>
                    <rect id="Rectangle-path" fill="#DCDCDC" x="38.131" y="135.251" width="6.994" height="16.421"></rect>
                    <rect id="Rectangle-path" fill="#DCDCDC" x="51.307" y="135.251" width="6.993" height="16.421"></rect>
                    <rect id="Rectangle-path" fill="#DCDCDC" x="11.998" y="157.856" width="6.994" height="16.421"></rect>
                    <rect id="Rectangle-path" fill="#DCDCDC" x="25.173" y="157.856" width="6.994" height="16.421"></rect>
                    <rect id="Rectangle-path" fill="#DCDCDC" x="38.131" y="157.856" width="6.994" height="16.421"></rect>
                    <rect id="Rectangle-path" fill="#DCDCDC" x="51.307" y="157.856" width="6.993" height="16.421"></rect>
                    <rect id="Rectangle-path" fill="#DCDCDC" x="11.998" y="180.462" width="6.994" height="16.421"></rect>
                    <rect id="Rectangle-path" fill="#DCDCDC" x="25.173" y="180.462" width="6.994" height="16.421"></rect>
                    <rect id="Rectangle-path" fill="#DCDCDC" x="38.131" y="180.462" width="6.994" height="16.421"></rect>
                    <rect id="Rectangle-path" fill="#DCDCDC" x="51.307" y="180.462" width="6.993" height="16.421"></rect>
                    <rect id="Rectangle-path" fill="#DCDCDC" x="11.998" y="203.067" width="6.994" height="16.421"></rect>
                    <rect id="Rectangle-path" fill="#DCDCDC" x="25.173" y="203.067" width="6.994" height="16.421"></rect>
                    <rect id="Rectangle-path" fill="#DCDCDC" x="38.131" y="203.067" width="6.994" height="16.421"></rect>
                    <rect id="Rectangle-path" fill="#DCDCDC" x="51.307" y="203.067" width="6.993" height="16.421"></rect>
                </g>
                <g id="Group" transform="translate(872.000000, 170.000000)" sketch:type="MSShapeGroup">
                    <rect id="Rectangle-path" fill="#AFC01D" x="0.771" y="33.177" width="76.06" height="222.795"></rect>
                    <rect id="Rectangle-path" fill="#AFC01D" x="7.765" y="16.273" width="60.322" height="25.354"></rect>
                    <rect id="Rectangle-path" fill="#AFC01D" x="14.759" y="0.151" width="46.334" height="19.474"></rect>
                    <rect id="Rectangle-path" fill="#7EA800" x="11.282" y="45.509" width="9.389" height="20.756"></rect>
                    <rect id="Rectangle-path" fill="#7EA800" x="25.915" y="45.509" width="9.39" height="20.756"></rect>
                    <rect id="Rectangle-path" fill="#7EA800" x="40.548" y="45.509" width="9.39" height="20.756"></rect>
                    <rect id="Rectangle-path" fill="#7EA800" x="55.181" y="45.509" width="9.391" height="20.756"></rect>
                    <rect id="Rectangle-path" fill="#7EA800" x="11.282" y="73.837" width="9.389" height="20.756"></rect>
                    <rect id="Rectangle-path" fill="#7EA800" x="25.915" y="73.837" width="9.39" height="20.756"></rect>
                    <rect id="Rectangle-path" fill="#7EA800" x="40.548" y="73.837" width="9.39" height="20.756"></rect>
                    <rect id="Rectangle-path" fill="#7EA800" x="55.181" y="73.837" width="9.391" height="20.756"></rect>
                    <rect id="Rectangle-path" fill="#7EA800" x="11.282" y="102.164" width="9.389" height="20.756"></rect>
                    <rect id="Rectangle-path" fill="#7EA800" x="25.915" y="102.164" width="9.39" height="20.756"></rect>
                    <rect id="Rectangle-path" fill="#7EA800" x="40.548" y="102.164" width="9.39" height="20.756"></rect>
                    <rect id="Rectangle-path" fill="#7EA800" x="55.181" y="102.164" width="9.391" height="20.756"></rect>
                    <rect id="Rectangle-path" fill="#7EA800" x="11.282" y="130.492" width="9.389" height="20.756"></rect>
                    <rect id="Rectangle-path" fill="#7EA800" x="25.915" y="130.492" width="9.39" height="20.756"></rect>
                    <rect id="Rectangle-path" fill="#7EA800" x="40.548" y="130.492" width="9.39" height="20.756"></rect>
                    <rect id="Rectangle-path" fill="#7EA800" x="55.181" y="130.492" width="9.391" height="20.756"></rect>
                </g>
                <g id="Group" transform="translate(934.000000, 256.000000)" sketch:type="MSShapeGroup">
                    <path d="M70.819,166.562 L0.462,166.562 L0.462,26.594 L14.83,0.763 L55.888,0.763 L70.819,26.594 L70.819,166.562 Z" id="Shape" fill="#004860"></path>
                    <rect id="Rectangle-path" fill="#002738" x="16.312" y="27.267" width="9.391" height="20.756"></rect>
                    <rect id="Rectangle-path" fill="#002738" x="30.945" y="27.267" width="9.39" height="20.756"></rect>
                    <rect id="Rectangle-path" fill="#002738" x="45.579" y="27.267" width="9.39" height="20.756"></rect>
                    <rect id="Rectangle-path" fill="#002738" x="16.312" y="53.294" width="9.391" height="20.755"></rect>
                    <rect id="Rectangle-path" fill="#002738" x="30.945" y="53.294" width="9.39" height="20.755"></rect>
                    <rect id="Rectangle-path" fill="#002738" x="45.579" y="53.294" width="9.39" height="20.755"></rect>
                    <rect id="Rectangle-path" fill="#002738" x="16.312" y="79.32" width="9.391" height="20.756"></rect>
                    <rect id="Rectangle-path" fill="#002738" x="30.945" y="79.32" width="9.39" height="20.756"></rect>
                    <rect id="Rectangle-path" fill="#002738" x="45.579" y="79.32" width="9.39" height="20.756"></rect>
                </g>
                <path d="M164.598,422.562 L94.241,422.562 L94.241,320.646 L129.42,273.074 L164.598,320.646 L164.598,422.562 Z" id="Shape" fill="#5A5A59" sketch:type="MSShapeGroup"></path>
                <rect id="Rectangle-path" fill="#FFFFFF" sketch:type="MSShapeGroup" x="103.839" y="367.955" width="51.159" height="26.758"></rect>
                <path d="M158.627,372.565 C159.971,372.565 161.063,371.475 161.063,370.131 C161.063,369.837 161.002,369.561 160.907,369.3 L157.276,354.106 L136.325,354.106 L123.309,354.106 L101.563,354.106 L97.93,369.3 C97.835,369.561 97.776,369.837 97.776,370.131 C97.776,371.475 98.866,372.565 100.211,372.565 C101.556,372.565 102.645,371.475 102.645,370.131 C102.645,371.475 103.735,372.565 105.079,372.565 C106.423,372.565 107.513,371.475 107.513,370.131 C107.513,371.475 108.603,372.565 109.949,372.565 C111.293,372.565 112.383,371.475 112.383,370.131 C112.383,371.475 113.473,372.565 114.817,372.565 C116.161,372.565 117.251,371.475 117.251,370.131 C117.251,371.475 118.341,372.565 119.687,372.565 C121.031,372.565 122.121,371.475 122.121,370.131 C122.121,371.475 123.211,372.565 124.555,372.565 C125.899,372.565 126.989,371.475 126.989,370.131 C126.989,371.475 128.079,372.565 129.425,372.565 C130.769,372.565 131.859,371.475 131.859,370.131 C131.859,371.475 132.949,372.565 134.293,372.565 C135.637,372.565 136.727,371.475 136.727,370.131 C136.727,371.475 137.817,372.565 139.163,372.565 C140.507,372.565 141.597,371.475 141.597,370.131 C141.597,371.475 142.687,372.565 144.031,372.565 C145.375,372.565 146.465,371.475 146.465,370.131 C146.465,371.475 147.555,372.565 148.899,372.565 C150.245,372.565 151.335,371.475 151.335,370.131 C151.335,371.475 152.423,372.565 153.769,372.565" id="Shape" fill="#C9C9C9" sketch:type="MSShapeGroup"></path>
                <rect id="Rectangle-path" fill="#C9C9C9" sketch:type="MSShapeGroup" x="104.169" y="324.773" width="8.116" height="18.586"></rect>
                <rect id="Rectangle-path" fill="#C9C9C9" sketch:type="MSShapeGroup" x="117.248" y="324.773" width="8.115" height="18.586"></rect>
                <rect id="Rectangle-path" fill="#C9C9C9" sketch:type="MSShapeGroup" x="130.326" y="324.773" width="8.115" height="18.586"></rect>
                <rect id="Rectangle-path" fill="#C9C9C9" sketch:type="MSShapeGroup" x="143.404" y="324.773" width="8.115" height="18.586"></rect>
                <g id="Group" transform="translate(23.000000, 273.000000)" sketch:type="MSShapeGroup">
                    <path d="M71.24,134.164 L0.882,134.164 L0.882,48.302 L36.062,0.73 L71.24,48.302 L71.24,134.164 Z" id="Shape" fill="#9DC2C9"></path>
                    <path d="M20.146,59.509 C20.148,59.467 20.154,59.426 20.154,59.383 C20.154,56.535 17.844,54.227 14.997,54.227 C12.148,54.227 9.84,56.536 9.84,59.383 C9.84,59.426 9.846,59.467 9.846,59.509 L9.837,59.509 L9.837,75.9 L20.157,75.9 L20.157,59.509 L20.146,59.509 L20.146,59.509 Z" id="Shape" fill="#249FA7"></path>
                    <path d="M34.19,59.509 C34.191,59.467 34.197,59.426 34.197,59.383 C34.197,56.535 31.888,54.227 29.04,54.227 C26.192,54.227 23.883,56.536 23.883,59.383 C23.883,59.426 23.889,59.467 23.891,59.509 L23.88,59.509 L23.88,75.9 L34.2,75.9 L34.2,59.509 L34.19,59.509 L34.19,59.509 Z" id="Shape" fill="#249FA7"></path>
                    <path d="M48.234,59.509 C48.234,59.467 48.24,59.426 48.24,59.383 C48.24,56.535 45.93,54.227 43.084,54.227 C40.236,54.227 37.926,56.536 37.926,59.383 C37.926,59.426 37.931,59.467 37.933,59.509 L37.924,59.509 L37.924,75.9 L48.244,75.9 L48.244,59.509 L48.234,59.509 L48.234,59.509 Z" id="Shape" fill="#249FA7"></path>
                    <path d="M62.277,59.509 C62.278,59.467 62.283,59.426 62.283,59.383 C62.283,56.535 59.974,54.227 57.127,54.227 C54.28,54.227 51.971,56.536 51.971,59.383 C51.971,59.426 51.975,59.467 51.975,59.509 L51.967,59.509 L51.967,75.9 L62.287,75.9 L62.287,59.509 L62.277,59.509 L62.277,59.509 Z" id="Shape" fill="#249FA7"></path>
                    <path d="M20.146,86.181 C20.148,86.138 20.154,86.097 20.154,86.055 C20.154,83.206 17.844,80.898 14.997,80.898 C12.148,80.898 9.84,83.207 9.84,86.055 C9.84,86.097 9.846,86.138 9.846,86.181 L9.837,86.181 L9.837,102.572 L20.157,102.572 L20.157,86.181 L20.146,86.181 L20.146,86.181 Z" id="Shape" fill="#7EA800"></path>
                    <path d="M34.19,86.181 C34.191,86.138 34.197,86.097 34.197,86.055 C34.197,83.206 31.888,80.898 29.04,80.898 C26.192,80.898 23.883,83.207 23.883,86.055 C23.883,86.097 23.889,86.138 23.891,86.181 L23.88,86.181 L23.88,102.572 L34.2,102.572 L34.2,86.181 L34.19,86.181 L34.19,86.181 Z" id="Shape" fill="#249FA7"></path>
                    <path d="M48.234,86.181 C48.234,86.138 48.24,86.097 48.24,86.055 C48.24,83.206 45.93,80.898 43.084,80.898 C40.236,80.898 37.926,83.207 37.926,86.055 C37.926,86.097 37.931,86.138 37.933,86.181 L37.924,86.181 L37.924,102.572 L48.244,102.572 L48.244,86.181 L48.234,86.181 L48.234,86.181 Z" id="Shape" fill="#249FA7"></path>
                    <path d="M62.277,86.181 C62.278,86.138 62.283,86.097 62.283,86.055 C62.283,83.206 59.974,80.898 57.127,80.898 C54.28,80.898 51.971,83.207 51.971,86.055 C51.971,86.097 51.975,86.138 51.975,86.181 L51.967,86.181 L51.967,102.572 L62.287,102.572 L62.287,86.181 L62.277,86.181 L62.277,86.181 Z" id="Shape" fill="#249FA7"></path>
                </g>
                <g id="Group" transform="translate(1004.000000, 289.000000)" sketch:type="MSShapeGroup">
                    <rect id="Rectangle-path" fill="#5A5A59" x="0.82" y="0.422" width="70.357" height="133.141"></rect>
                    <rect id="Rectangle-path" fill="#C9C9C9" x="12.339" y="16.238" width="14.1" height="6.994"></rect>
                    <rect id="Rectangle-path" fill="#C9C9C9" x="28.949" y="16.238" width="14.101" height="6.994"></rect>
                    <rect id="Rectangle-path" fill="#C9C9C9" x="45.56" y="16.238" width="14.102" height="6.994"></rect>
                    <rect id="Rectangle-path" fill="#C9C9C9" x="12.339" y="28.898" width="14.1" height="6.994"></rect>
                    <rect id="Rectangle-path" fill="#C9C9C9" x="28.949" y="28.898" width="14.101" height="6.994"></rect>
                    <rect id="Rectangle-path" fill="#C9C9C9" x="45.56" y="28.898" width="14.102" height="6.994"></rect>
                    <rect id="Rectangle-path" fill="#C9C9C9" x="12.339" y="41.559" width="14.1" height="6.994"></rect>
                    <rect id="Rectangle-path" fill="#C9C9C9" x="28.949" y="41.559" width="14.101" height="6.994"></rect>
                    <rect id="Rectangle-path" fill="#C9C9C9" x="45.56" y="41.559" width="14.102" height="6.994"></rect>
                    <rect id="Rectangle-path" fill="#C9C9C9" x="12.339" y="54.219" width="14.1" height="6.994"></rect>
                    <rect id="Rectangle-path" fill="#C9C9C9" x="28.949" y="54.219" width="14.101" height="6.994"></rect>
                    <rect id="Rectangle-path" fill="#C9C9C9" x="45.56" y="54.219" width="14.102" height="6.994"></rect>
                    <rect id="Rectangle-path" fill="#C9C9C9" x="12.339" y="66.878" width="14.1" height="6.994"></rect>
                    <rect id="Rectangle-path" fill="#C9C9C9" x="28.949" y="66.878" width="14.101" height="6.994"></rect>
                    <rect id="Rectangle-path" fill="#C9C9C9" x="45.56" y="66.878" width="14.102" height="6.994"></rect>
                    <rect id="Rectangle-path" fill="#C9C9C9" x="12.339" y="79.539" width="14.1" height="6.993"></rect>
                    <rect id="Rectangle-path" fill="#C9C9C9" x="28.949" y="79.539" width="14.101" height="6.993"></rect>
                    <rect id="Rectangle-path" fill="#C9C9C9" x="45.56" y="79.539" width="14.102" height="6.993"></rect>
                </g>
                <g id="Group" transform="translate(824.000000, 289.000000)" sketch:type="MSShapeGroup">
                    <rect id="Rectangle-path" fill="#5A5A59" x="0.349" y="0.422" width="70.357" height="133.141"></rect>
                    <rect id="Rectangle-path" fill="#C9C9C9" x="11.867" y="16.238" width="14.1" height="6.994"></rect>
                    <rect id="Rectangle-path" fill="#C9C9C9" x="28.478" y="16.238" width="14.101" height="6.994"></rect>
                    <rect id="Rectangle-path" fill="#C9C9C9" x="45.088" y="16.238" width="14.102" height="6.994"></rect>
                    <rect id="Rectangle-path" fill="#C9C9C9" x="11.867" y="28.898" width="14.1" height="6.994"></rect>
                    <rect id="Rectangle-path" fill="#C9C9C9" x="28.478" y="28.898" width="14.101" height="6.994"></rect>
                    <rect id="Rectangle-path" fill="#C9C9C9" x="45.088" y="28.898" width="14.102" height="6.994"></rect>
                    <rect id="Rectangle-path" fill="#C9C9C9" x="11.867" y="41.559" width="14.1" height="6.994"></rect>
                    <rect id="Rectangle-path" fill="#C9C9C9" x="28.478" y="41.559" width="14.101" height="6.994"></rect>
                    <rect id="Rectangle-path" fill="#C9C9C9" x="45.088" y="41.559" width="14.102" height="6.994"></rect>
                    <rect id="Rectangle-path" fill="#C9C9C9" x="11.867" y="54.219" width="14.1" height="6.994"></rect>
                    <rect id="Rectangle-path" fill="#C9C9C9" x="28.478" y="54.219" width="14.101" height="6.994"></rect>
                    <rect id="Rectangle-path" fill="#C9C9C9" x="45.088" y="54.219" width="14.102" height="6.994"></rect>
                    <rect id="Rectangle-path" fill="#C9C9C9" x="11.867" y="66.878" width="14.1" height="6.994"></rect>
                    <rect id="Rectangle-path" fill="#C9C9C9" x="28.478" y="66.878" width="14.101" height="6.994"></rect>
                    <rect id="Rectangle-path" fill="#C9C9C9" x="45.088" y="66.878" width="14.102" height="6.994"></rect>
                    <rect id="Rectangle-path" fill="#C9C9C9" x="11.867" y="79.539" width="14.1" height="6.993"></rect>
                    <rect id="Rectangle-path" fill="#C9C9C9" x="28.478" y="79.539" width="14.101" height="6.993"></rect>
                    <rect id="Rectangle-path" fill="#C9C9C9" x="45.088" y="79.539" width="14.102" height="6.993"></rect>
                </g>
                <g id="Group" transform="translate(164.000000, 286.000000)" sketch:type="MSShapeGroup">
                    <rect id="Rectangle-path" fill="#FFFFFF" x="0.598" y="26.915" width="70.357" height="109.647"></rect>
                    <rect id="Rectangle-path" fill="#FFFFFF" x="6.945" y="12.848" width="53.768" height="28.135"></rect>
                    <rect id="Rectangle-path" fill="#FFFFFF" x="13.512" y="0.59" width="40.994" height="21.45"></rect>
                    <rect id="Rectangle-path" fill="#DCDCDC" x="12.625" y="35.025" width="6.994" height="16.42"></rect>
                    <rect id="Rectangle-path" fill="#DCDCDC" x="25.801" y="35.025" width="6.994" height="16.42"></rect>
                    <rect id="Rectangle-path" fill="#DCDCDC" x="38.758" y="35.025" width="6.994" height="16.42"></rect>
                    <rect id="Rectangle-path" fill="#DCDCDC" x="51.934" y="35.025" width="6.994" height="16.42"></rect>
                    <rect id="Rectangle-path" fill="#DCDCDC" x="12.625" y="57.63" width="6.994" height="16.421"></rect>
                    <rect id="Rectangle-path" fill="#DCDCDC" x="25.801" y="57.63" width="6.994" height="16.421"></rect>
                    <rect id="Rectangle-path" fill="#DCDCDC" x="38.758" y="57.63" width="6.994" height="16.421"></rect>
                    <rect id="Rectangle-path" fill="#DCDCDC" x="51.934" y="57.63" width="6.994" height="16.421"></rect>
                    <rect id="Rectangle-path" fill="#DCDCDC" x="12.625" y="80.236" width="6.994" height="16.42"></rect>
                    <rect id="Rectangle-path" fill="#DCDCDC" x="25.801" y="80.236" width="6.994" height="16.42"></rect>
                    <rect id="Rectangle-path" fill="#DCDCDC" x="38.758" y="80.236" width="6.994" height="16.42"></rect>
                    <rect id="Rectangle-path" fill="#DCDCDC" x="51.934" y="80.236" width="6.994" height="16.42"></rect>
                </g>
                <g id="Group" transform="translate(1117.000000, 275.000000)" sketch:type="MSShapeGroup">
                    <path d="M70.737,134.193 L0.38,134.193 L0.38,48.33 L35.56,0.759 L70.737,48.33 L70.737,134.193 Z" id="Shape" fill="#004860"></path>
                    <circle id="Oval" fill="#002738" cx="23.14" cy="54.763" r="8.48"></circle>
                    <circle id="Oval" fill="#002738" cx="47.978" cy="54.763" r="8.48"></circle>
                    <circle id="Oval" fill="#002738" cx="23.14" cy="78.897" r="8.48"></circle>
                    <circle id="Oval" fill="#002738" cx="47.978" cy="78.897" r="8.48"></circle>
                    <circle id="Oval" fill="#002738" cx="23.14" cy="103.031" r="8.48"></circle>
                    <circle id="Oval" fill="#002738" cx="47.978" cy="103.031" r="8.48"></circle>
                </g>
                <rect id="Rectangle-path" fill="#C4D1D8" sketch:type="MSShapeGroup" x="0.325" y="406.828" width="1273.537" height="24.027"></rect>
                <g id="Group" transform="translate(63.000000, 337.000000)" sketch:type="MSShapeGroup">
                    <rect id="Rectangle-path" fill="#004860" x="16.633" y="54.896" width="4.274" height="25.014"></rect>
                    <g id="Shape">
                        <path d="M0.064,44.869 C0.064,55.2 8.439,63.575 18.77,63.575 L18.77,0.669 C18.771,0.669 0.064,34.538 0.064,44.869 L0.064,44.869 Z" fill="#AFC01D"></path>
                        <path d="M37.477,44.869 C37.477,34.538 18.77,0.669 18.77,0.669 L18.77,63.575 C29.102,63.575 37.477,55.2 37.477,44.869 L37.477,44.869 Z" fill="#7EA800"></path>
                    </g>
                </g>
                <g id="Group" transform="translate(15.000000, 337.000000)" sketch:type="MSShapeGroup">
                    <rect id="Rectangle-path" fill="#004860" x="16.855" y="54.896" width="4.274" height="25.014"></rect>
                    <g id="Shape">
                        <path d="M0.287,44.869 C0.287,55.2 8.662,63.575 18.993,63.575 L18.993,0.669 C18.993,0.669 0.287,34.538 0.287,44.869 L0.287,44.869 Z" fill="#AFC01D"></path>
                        <path d="M37.699,44.869 C37.699,34.538 18.992,0.669 18.992,0.669 L18.992,63.575 C29.324,63.575 37.699,55.2 37.699,44.869 L37.699,44.869 Z" fill="#7EA800"></path>
                    </g>
                </g>
                <g id="Group" transform="translate(98.000000, 337.000000)" sketch:type="MSShapeGroup">
                    <rect id="Rectangle-path" fill="#004860" x="16.659" y="54.896" width="4.274" height="25.014"></rect>
                    <g id="Shape">
                        <path d="M0.09,44.869 C0.09,55.2 8.465,63.575 18.796,63.575 L18.796,0.669 C18.796,0.669 0.09,34.538 0.09,44.869 L0.09,44.869 Z" fill="#AFC01D"></path>
                        <path d="M37.502,44.869 C37.502,34.538 18.795,0.669 18.795,0.669 L18.795,63.575 C29.127,63.575 37.502,55.2 37.502,44.869 L37.502,44.869 Z" fill="#7EA800"></path>
                    </g>
                </g>
                <g id="Group" transform="translate(939.000000, 337.000000)" sketch:type="MSShapeGroup">
                    <rect id="Rectangle-path" fill="#004860" x="16.587" y="54.896" width="4.274" height="25.014"></rect>
                    <g id="Shape">
                        <path d="M0.018,44.869 C0.018,55.2 8.393,63.575 18.725,63.575 L18.725,0.669 C18.725,0.669 0.018,34.538 0.018,44.869 L0.018,44.869 Z" fill="#AFC01D"></path>
                        <path d="M37.431,44.869 C37.431,34.538 18.725,0.669 18.725,0.669 L18.725,63.575 C29.056,63.575 37.431,55.2 37.431,44.869 L37.431,44.869 Z" fill="#7EA800"></path>
                    </g>
                </g>
                <g id="Group" transform="translate(793.000000, 337.000000)" sketch:type="MSShapeGroup">
                    <rect id="Rectangle-path" fill="#004860" x="16.708" y="54.896" width="4.273" height="25.014"></rect>
                    <g id="Shape">
                        <path d="M0.138,44.869 C0.138,55.2 8.513,63.575 18.845,63.575 L18.845,0.669 C18.845,0.669 0.138,34.538 0.138,44.869 L0.138,44.869 Z" fill="#AFC01D"></path>
                        <path d="M37.552,44.869 C37.552,34.538 18.845,0.669 18.845,0.669 L18.845,63.575 C29.177,63.575 37.552,55.2 37.552,44.869 L37.552,44.869 Z" fill="#7EA800"></path>
                    </g>
                </g>
                <g id="Group" transform="translate(191.000000, 337.000000)" sketch:type="MSShapeGroup">
                    <rect id="Rectangle-path" fill="#004860" x="16.614" y="54.896" width="4.275" height="25.014"></rect>
                    <g id="Shape">
                        <path d="M0.046,44.869 C0.046,55.2 8.421,63.575 18.753,63.575 L18.753,0.669 C18.753,0.669 0.046,34.538 0.046,44.869 L0.046,44.869 Z" fill="#AFC01D"></path>
                        <path d="M37.458,44.869 C37.458,34.538 18.753,0.669 18.753,0.669 L18.753,63.575 C29.083,63.575 37.458,55.2 37.458,44.869 L37.458,44.869 Z" fill="#7EA800"></path>
                    </g>
                </g>
                <g id="Group" transform="translate(1101.000000, 337.000000)" sketch:type="MSShapeGroup">
                    <rect id="Rectangle-path" fill="#004860" x="16.624" y="54.896" width="4.273" height="25.014"></rect>
                    <g id="Shape">
                        <path d="M0.054,44.869 C0.054,55.2 8.429,63.575 18.761,63.575 L18.761,0.669 C18.761,0.669 0.054,34.538 0.054,44.869 L0.054,44.869 Z" fill="#AFC01D"></path>
                        <path d="M37.468,44.869 C37.468,34.538 18.761,0.669 18.761,0.669 L18.761,63.575 C29.093,63.575 37.468,55.2 37.468,44.869 L37.468,44.869 Z" fill="#7EA800"></path>
                    </g>
                </g>
                <g id="Group" transform="translate(982.000000, 337.000000)" sketch:type="MSShapeGroup">
                    <rect id="Rectangle-path" fill="#004860" x="17.476" y="54.896" width="4.275" height="25.014"></rect>
                    <g id="Shape">
                        <path d="M0.907,44.869 C0.907,55.2 9.282,63.575 19.614,63.575 L19.614,0.669 C19.614,0.669 0.907,34.538 0.907,44.869 L0.907,44.869 Z" fill="#AFC01D"></path>
                        <path d="M38.319,44.869 C38.319,34.538 19.614,0.669 19.614,0.669 L19.614,63.575 C29.944,63.575 38.319,55.2 38.319,44.869 L38.319,44.869 Z" fill="#7EA800"></path>
                    </g>
                </g>
                <g id="Group" transform="translate(442.000000, 337.000000)" sketch:type="MSShapeGroup">
                    <rect id="Rectangle-path" fill="#004860" x="17.568" y="54.896" width="4.273" height="25.014"></rect>
                    <g id="Shape">
                        <path d="M0.998,44.869 C0.998,55.2 9.373,63.575 19.705,63.575 L19.705,0.669 C19.705,0.669 0.998,34.538 0.998,44.869 L0.998,44.869 Z" fill="#AFC01D"></path>
                        <path d="M38.412,44.869 C38.412,34.538 19.705,0.669 19.705,0.669 L19.705,63.575 C30.037,63.575 38.412,55.2 38.412,44.869 L38.412,44.869 Z" fill="#7EA800"></path>
                    </g>
                </g>
                <text id="Groot-Handelsgebouw" fill="#FFFFFF" sketch:type="MSTextLayer" font-family="Helvetica" font-size="13.3408" font-weight="normal">
                    <tspan x="256.6528" y="283.9453" fill="#000000">Groot Handelsgebouw</tspan>
                </text>
            </g>
        </g>
    </g>
</svg>